/* XPM */
static char * sonic_rainbow_xpm[] = {
"48 48 124 2",
"  	c None",
". 	c #6D6DF9",
"+ 	c #5757C6",
"@ 	c #06060F",
"# 	c #323271",
"$ 	c #090915",
"% 	c #05050B",
"& 	c #0D0D1E",
"* 	c #5A5ACE",
"= 	c #14142D",
"- 	c #06060E",
"; 	c #232351",
"> 	c #5555C2",
", 	c #000000",
"' 	c #4E4EB2",
") 	c #13132C",
"! 	c #37377D",
"~ 	c #6767EB",
"{ 	c #242452",
"] 	c #070710",
"^ 	c #252554",
"/ 	c #5B5BD0",
"( 	c #5F5FD9",
"_ 	c #5E5ED8",
": 	c #393982",
"< 	c #6C6CF7",
"[ 	c #252555",
"} 	c #2E2E68",
"| 	c #1D1D43",
"1 	c #6565E8",
"2 	c #4949A6",
"3 	c #030308",
"4 	c #1D1D41",
"5 	c #232350",
"6 	c #6161DE",
"7 	c #6363E2",
"8 	c #020205",
"9 	c #36367B",
"0 	c #5F5FDA",
"a 	c #6161DF",
"b 	c #4D4DAF",
"c 	c #080813",
"d 	c #5C5CD2",
"e 	c #13132B",
"f 	c #070711",
"g 	c #4949A7",
"h 	c #6969EF",
"i 	c #5454C0",
"j 	c #38387F",
"k 	c #6161DD",
"l 	c #4C4CAE",
"m 	c #6262E0",
"n 	c #5B5BD1",
"o 	c #4646A0",
"p 	c #19193A",
"q 	c #262658",
"r 	c #1E1E44",
"s 	c #20204A",
"t 	c #5B5BCF",
"u 	c #5E5ED7",
"v 	c #151530",
"w 	c #0C0C1B",
"x 	c #4848A4",
"y 	c #6060DC",
"z 	c #181837",
"A 	c #06060D",
"B 	c #6363E4",
"C 	c #21214B",
"D 	c #0A0A16",
"E 	c #2D2D67",
"F 	c #37377E",
"G 	c #111127",
"H 	c #5050B7",
"I 	c #424297",
"J 	c #424296",
"K 	c #101025",
"L 	c #12122A",
"M 	c #4B4BAC",
"N 	c #333374",
"O 	c #3C3C89",
"P 	c #2E2E69",
"Q 	c #5757C7",
"R 	c #3C3C8A",
"S 	c #6969F0",
"T 	c #29295D",
"U 	c #1E1E45",
"V 	c #2A2A61",
"W 	c #343476",
"X 	c #2B2B62",
"Y 	c #05050C",
"Z 	c #171735",
"` 	c #5858C9",
" .	c #6B6BF4",
"..	c #6363E3",
"+.	c #1C1C3F",
"@.	c #0F0F21",
"#.	c #2F2F6A",
"$.	c #5252BB",
"%.	c #0A0A17",
"&.	c #6A6AF1",
"*.	c #5454BF",
"=.	c #5A5ACD",
"-.	c #1B1B3E",
";.	c #14142E",
">.	c #4D4DB0",
",.	c #22224E",
"'.	c #3F3F90",
").	c #6868EE",
"!.	c #4A4AA8",
"~.	c #0B0B18",
"{.	c #29295E",
"].	c #3A3A84",
"^.	c #3E3E8E",
"/.	c #6A6AF3",
"(.	c #6262E1",
"_.	c #020204",
":.	c #5858CA",
"<.	c #1D1D42",
"[.	c #4C4CAD",
"}.	c #010103",
"|.	c #28285C",
"1.	c #353578",
"2.	c #383880",
"3.	c #090914",
". . . . . . . . . . . . . . . . . . . . . . . . . . . . . . . . . . . . . . . . . . . . . . . . ",
". . . . . . . . . . . . . . . . . . . . . . . . . . . . . . . . . . . . . . . . . . . . . . . . ",
". . . . . . . . . . . . . . . . . . . . . . . . . . . . . . . . . . . . . . . . . . . . . . . . ",
". . . . . . . . . . . . . . . . . . . . . . . . . . . . . . . . . . . . . . . . . . . . . . . . ",
". . . . . . . . . . . . . . . . . . . . . . . . . . . . . . . . . . . . . . . . . . . . . . . . ",
". . . . . . . . . . . . . . . . . . . . . . . . . . . . . . . . . . . . . . . . . . . . . . . . ",
". . . . . . . . . . . . . . . . . . . . . . . . . . . . . . . . . . . . . . . . . . . . . . . . ",
". . . . . . . . . . . . . . . . . . . . . . . . . . . . . . . . . . . . . . . . . . . . . . . . ",
". . . . . . . . . . . . . . . . . . . . . . . . . . . . . . . . . . . . . . . . . . . . . . . . ",
". . . . . . . . . . . . . . . . . . . . . . . . . . . . . . . . . . . . . . . . . . . . . . . . ",
". . . . . . . . . . . . . . . . . . . . . . . . . . . . . . . . . . . . . . . . . . . . . . . . ",
". . . . . . . . . . . . . . . . . . . . . . . . . . . . . . . . . . . . . . . . . . . . . . . . ",
". . . . . . . . . . . . . . . . . . . . . . . . . . . . + @ . . . . . . . . . . . . . . . . . . ",
". . . . . . . . . . . . . . . . . . . . . . . . . . . . . . . . . . . . . . . . . . . . . . . . ",
". . . . . . . . . . . . . . . . . . . . . . . . . . . . . . . . . . . . . . . . . . . . . . . . ",
". . . . . . . . . # $ % & . . * = - ; . . > , ' ) % ! . > , . . ~ { @ ] ^ . . . . . . . . . . . ",
". . . . . . . . / , ( . _ . . = : < [ } . > , | 1 2 3 . > , . . 4 5 . . 6 . . . . . . . . . . . ",
". . . . . . . . 7 8 9 . . . 0 , a . b c . > , a . > , . > , . a , d . . . . . . . . . . . . . . ",
". . . . . . . . . b e f g . + , h . i , . > , . . > , . > , . + , . . . . . . . . . . . . . . . ",
". . . . . . . . . . . j f . k , 6 . l @ . > , . . > , . > , . m , n . . . . . . . . . . . . . . ",
". . . . . . . . m i . o - . . p : < ^ q . > , . . > , . > , . . r s . . t . . . . . . . . . . . ",
". . . . . . . . u v @ w x . . y z A 4 B . > , . . > , . > , . . 1 C % D E . . . . . . . . . . . ",
". . . . . . . . . . . . . . . . . . . . . . . . . . . . . . . . . . . . . . . . . . . . . . . . ",
". . . . . . . . . . . . . . . . . . . . . . . . . . . . . . . . . . . . . . . . . . . . . . . . ",
". . . . . . . . . . . . . . . . . . . . . . . . . . . . . . . . . . . . . . . . . . . . . . . . ",
". . . . . . . . . . . . . . . . . . . . . . . . . . . . . . . . . . . . . . . . . . . . . . . . ",
". . . . . . . . . . . . . . . . . . . . . . . . . . . . . . . . . . . . . . . . . . . . . . . . ",
". . . . . . . . . . . . . . . . . . . . . . . . . . . . . . . . . . . . . . . . . . . . . . . . ",
". . . . . . . . . . . . . . . . . . . . . . . . . . . . . . . . . . . . . . . . . . . . . . . . ",
". . . . . . . . . . . . . + @ . . . . . . . . > , . . . . . . . . . . . . . . . . . . . . . . . ",
". . . . . . . . . . . . . . . . . . . . . . . > , . . . . . . . . . . . . . . . . . . . . . . . ",
". . . . . . . . . . . . . . . . . . . . . . . > , . . . . . . . . . . . . . . . . . . . . . . . ",
". . > , F G . H v @ $ I . > , . > , ' ) % ! . > , J D K n . . * = - ; . . L M . g , 1 . N O . . ",
". . > , P . . Q k . R A . > , . > , | 1 2 3 . > , 5 S T U . . = : < [ } . V W . X Y g . Z ` . . ",
". . > ,  .. . . . . > , . > , . > , a . > , . > , ... l 3 . 0 , a . b c . I +.. @.N #.. $ . . . ",
". . > , . . . $.U %.A , . > , . > , . . > , . > , &.. *., . + , h . i , . * A =.-.i ;.>.,.. . . ",
". . > , . . 1 3 '.).> , . > , . > , . . > , . > , &.. !.~.. k , 6 . l @ . . - {.].. A V ^.. . . ",
". . > , . . * , t /.j , (.> , . > , . . > , . > , ~ &.r # . . p : < ^ q . . 4 _.:.. <.8 =.. . . ",
". . > , . . . E A ;.[.+.) > , . > , . . > , . > , }.f |.. . . y z A 4 B . . 1.%.. . 2.3.. . . . ",
". . . . . . . . . . . . . . . . . . . . . . . . . . . . . . . . . . . . . . . . . . . . . . . . ",
". . . . . . . . . . . . . . . . . . . . . . . . . . . . . . . . . . . . . . . . . . . . . . . . ",
". . . . . . . . . . . . . . . . . . . . . . . . . . . . . . . . . . . . . . . . . . . . . . . . ",
". . . . . . . . . . . . . . . . . . . . . . . . . . . . . . . . . . . . . . . . . . . . . . . . ",
". . . . . . . . . . . . . . . . . . . . . . . . . . . . . . . . . . . . . . . . . . . . . . . . ",
". . . . . . . . . . . . . . . . . . . . . . . . . . . . . . . . . . . . . . . . . . . . . . . . ",
". . . . . . . . . . . . . . . . . . . . . . . . . . . . . . . . . . . . . . . . . . . . . . . . ",
". . . . . . . . . . . . . . . . . . . . . . . . . . . . . . . . . . . . . . . . . . . . . . . . ",
". . . . . . . . . . . . . . . . . . . . . . . . . . . . . . . . . . . . . . . . . . . . . . . . "};
